<?xml version="1.0" encoding="UTF-8"?>
<svg width="700pt" height="700pt" version="1.1" viewBox="0 0 700 700" xmlns="http://www.w3.org/2000/svg" xmlns:xlink="http://www.w3.org/1999/xlink" fill="#FF7B24">
 <g>
  <path d="m599.76 226.8v200.48c0 7.8398-2.8008 15.121-8.3984 20.719-5.6016 5.6016-12.879 8.3984-20.719 8.3984h-134.96c-7.8398 0-15.121-2.8008-20.719-8.3984-5.6016-5.6016-8.3984-12.879-8.3984-20.719l-0.007812-200.48c0-7.8398 2.8008-15.121 8.3984-20.719 5.6016-5.6016 12.879-8.3984 20.719-8.3984h134.96c7.8398 0 15.121 2.8008 20.719 8.3984 5.6055 5.5977 8.4062 12.316 8.4062 20.719zm-23.523 176.4v-176.4c0-1.6797-0.55859-2.8008-1.6797-3.9219s-2.8008-1.6797-3.9219-1.6797h-134.96c-1.6797 0-2.8008 0.55859-3.9219 1.6797s-1.6797 2.8008-1.6797 3.9219v176.96c0 1.6797 0.55859 2.8008 1.6797 3.9219s2.8008 1.6797 3.9219 1.6797h134.96c1.6797 0 2.8008-0.55859 3.9219-1.6797 1.1211-1.125 1.6797-2.8047 1.6797-4.4844zm-64.957 38.082c2.2383-2.2383 3.3594-5.0391 3.3594-8.3984 0-3.3594-1.1211-6.1602-3.3594-8.3984s-5.0391-3.3594-8.3984-3.3594c-3.3594 0-6.1602 1.1211-8.3984 3.3594s-3.3594 5.0391-3.3594 8.3984c0 3.3594 1.1211 6.1602 3.3594 8.3984s5.0391 3.3594 8.3984 3.3594c3.3555 0 6.1562-1.1211 8.3984-3.3594z"/>
  <path d="m212.8 254.24v179.76c0 6.1602-2.2383 11.199-6.7188 15.68-4.4805 4.4805-9.5195 6.7188-15.68 6.7188h-72.238c-6.1602 0-11.199-2.2383-15.68-6.7188-4.4805-4.4805-6.7188-9.5195-6.7188-15.68v-179.76c0-6.1602 2.2383-11.199 6.7188-15.68 4.4805-4.4805 9.5195-6.7188 15.68-6.7188h72.238c6.1602 0 11.199 2.2383 15.68 6.7188 5.0391 4.4805 6.7188 10.082 6.7188 15.68zm-16.801 151.76v-123.2c0-1.6797-0.55859-2.8008-1.6797-3.9219-1.1211-1.1211-2.2383-1.6797-3.9219-1.6797h-72.238c-1.6797 0-2.8008 0.55859-3.9219 1.6797-1.1211 1.1211-1.6797 2.2383-1.6797 3.9219v123.2c0 1.6797 0.55859 2.8008 1.6797 3.9219 1.1211 1.1211 2.2383 1.6797 3.9219 1.6797h72.238c1.6797 0 2.8008-0.55859 3.9219-1.6797 1.1211-1.1211 1.6797-2.2422 1.6797-3.9219zm-24.641-148.96c0-1.6797-1.1211-2.8008-2.8008-2.8008h-28c-1.6797 0-2.8008 1.1211-2.8008 2.8008 0 1.6797 1.1211 2.8008 2.8008 2.8008h28c1.6797 0 2.8008-0.55859 2.8008-2.8008zm-8.9609 184.8c2.2383-2.2383 3.3594-4.4805 3.3594-7.8398 0-2.8008-1.1211-5.6016-3.3594-7.8398-2.2383-2.2383-4.4805-3.3594-7.8398-3.3594-2.8008 0-5.6016 1.1211-7.8398 3.3594-2.2383 2.2383-3.3594 5.0391-3.3594 7.8398s1.1211 5.6016 3.3594 7.8398c2.2383 2.2383 4.4805 3.3594 7.8398 3.3594 2.8008 0 5.6016-1.1211 7.8398-3.3594z"/>
  <path d="m506.24 98c-6.1602-6.1602-13.441-8.9609-21.84-8.9609h-311.36c-8.3984 0-15.68 2.8008-21.84 8.9609-6.1602 6.1602-8.9609 13.441-8.9609 21.84v95.199h24.641v-95.199c0-1.6797 0.55859-3.3594 1.6797-4.4805s2.8008-1.6797 4.4805-1.6797h311.36c1.6797 0 3.3594 0.55859 4.4805 1.6797s1.6797 2.8008 1.6797 4.4805v60.48h24.641v-60.48c0-8.3984-2.8008-15.68-8.9609-21.84z"/>
  <path d="m229.6 362.88h54.32c0 5.0391-1.1211 10.078-3.3594 15.121-2.2383 5.0391-3.9219 9.5195-6.1602 13.441-2.2383 3.9219-3.3594 6.7188-3.3594 8.3984 0 3.3594 1.1211 6.1602 3.9219 8.9609 2.2383 2.2383 5.6016 3.9219 8.9609 3.9219h88.48c3.3594 0 6.1602-1.1211 8.9609-3.9219 2.2383-2.2383 3.9219-5.6016 3.9219-8.9609 0-1.6797-1.1211-4.4805-3.3594-8.3984-2.2383-3.9219-3.9219-8.3984-6.1602-14-2.2383-5.0391-3.3594-10.078-3.3594-15.121h15.68v-26.32h-159.04z"/>
  <use x="70" y="644" xlink:href="#y"/>
  <use x="90.550781" y="644" xlink:href="#b"/>
  <use x="104.359375" y="644" xlink:href="#a"/>
  <use x="123.347656" y="644" xlink:href="#e"/>
  <use x="142.242188" y="644" xlink:href="#d"/>
  <use x="155.628906" y="644" xlink:href="#a"/>
  <use x="174.617188" y="644" xlink:href="#n"/>
  <use x="204.40625" y="644" xlink:href="#m"/>
  <use x="224.449219" y="644" xlink:href="#l"/>
  <use x="252.449219" y="644" xlink:href="#k"/>
  <use x="275.882812" y="644" xlink:href="#e"/>
  <use x="294.777344" y="644" xlink:href="#g"/>
  <use x="314.710937" y="644" xlink:href="#j"/>
  <use x="341.125" y="644" xlink:href="#i"/>
  <use x="361.648437" y="644" xlink:href="#e"/>
  <use x="380.542969" y="644" xlink:href="#f"/>
  <use x="400.476562" y="644" xlink:href="#h"/>
  <use x="419.820312" y="644" xlink:href="#x"/>
  <use x="447.683594" y="644" xlink:href="#w"/>
  <use x="466.921875" y="644" xlink:href="#j"/>
  <use x="483.585937" y="644" xlink:href="#h"/>
  <use x="502.933594" y="644" xlink:href="#v"/>
  <use x="513.351562" y="644" xlink:href="#f"/>
  <use x="533.285156" y="644" xlink:href="#g"/>
  <use x="553.21875" y="644" xlink:href="#u"/>
  <use x="562.816406" y="644" xlink:href="#c"/>
  <use x="582.050781" y="644" xlink:href="#b"/>
  <use x="70" y="672" xlink:href="#t"/>
  <use x="82.179688" y="672" xlink:href="#b"/>
  <use x="95.992188" y="672" xlink:href="#c"/>
  <use x="115.226563" y="672" xlink:href="#s"/>
  <use x="154.152344" y="672" xlink:href="#d"/>
  <use x="167.535156" y="672" xlink:href="#r"/>
  <use x="187.46875" y="672" xlink:href="#a"/>
  <use x="216.207031" y="672" xlink:href="#q"/>
  <use x="239.640625" y="672" xlink:href="#c"/>
  <use x="258.875" y="672" xlink:href="#f"/>
  <use x="278.808594" y="672" xlink:href="#g"/>
  <use x="308.492187" y="672" xlink:href="#i"/>
  <use x="329.011719" y="672" xlink:href="#b"/>
  <use x="342.820312" y="672" xlink:href="#c"/>
  <use x="362.058594" y="672" xlink:href="#p"/>
  <use x="371.65625" y="672" xlink:href="#a"/>
  <use x="390.644531" y="672" xlink:href="#o"/>
  <use x="407.242187" y="672" xlink:href="#d"/>
 </g>
</svg>
